<svg xmlns="http://www.w3.org/2000/svg" viewBox="2118.335 44.364 29.165 31.375">
    <defs>
        <style>
            .cls-1 {
            fill: #fff;
            fill-rule: evenodd;
            }
        </style>
    </defs>
    <path id="Path_24" data-name="Path 24" class="cls-1"
          d="M40.668,43.206H30.9a.32.32,0,0,1-.256-.127L20.975,30.672l6.856-3.959a.041.041,0,0,0,.012.016L40.92,42.673A.327.327,0,0,1,40.668,43.206ZM27.845,26.312a.229.229,0,0,0-.042.067l-6.47-3.737,8.623-10.691a.323.323,0,0,1,.254-.12H39.5a.325.325,0,0,1,.247.538ZM19.808,43.206H12.154a.325.325,0,0,1-.325-.325V35.953l8.3-4.794V42.881A.325.325,0,0,1,19.808,43.206Zm-7.979-31.05a.325.325,0,0,1,.325-.325h7.578a.325.325,0,0,1,.325.325l.035,9.77-8.263-4.771Z"
          transform="translate(2106.506 32.533)"/>
</svg>
