<svg xmlns="http://www.w3.org/2000/svg" viewBox="2115.464 1010.345 33.699 19.31">
    <defs>
        <style>
            .cls-1 {
            fill: #252c41;
            }
        </style>
    </defs>
    <path id="Union_5" data-name="Union 5" class="cls-1"
          d="M14.338,26.311a1.931,1.931,0,0,1,0-3.862h24.43a1.931,1.931,0,1,1,0,3.862ZM7,24.38a1.931,1.931,0,1,1,1.931,1.931A1.931,1.931,0,0,1,7,24.38Zm7.338-5.793a1.931,1.931,0,0,1,0-3.863h24.43a1.931,1.931,0,1,1,0,3.863ZM7,16.655a1.931,1.931,0,1,1,1.931,1.931A1.931,1.931,0,0,1,7,16.655Zm7.338-5.793a1.931,1.931,0,0,1,0-3.862h24.43a1.931,1.931,0,1,1,0,3.862ZM7,8.931a1.931,1.931,0,1,1,1.931,1.931A1.93,1.93,0,0,1,7,8.931Z"
          transform="translate(2108.464 1003.345)"/>
</svg>
